<?xml version="1.0" encoding="UTF-8" standalone="no"?>
<!-- Generator: Adobe Illustrator 19.0.0, SVG Export Plug-In . SVG Version: 6.00 Build 0)  -->

<svg
   xmlns:dc="http://purl.org/dc/elements/1.1/"
   xmlns:cc="http://creativecommons.org/ns#"
   xmlns:rdf="http://www.w3.org/1999/02/22-rdf-syntax-ns#"
   xmlns:svg="http://www.w3.org/2000/svg"
   xmlns="http://www.w3.org/2000/svg"
   xmlns:sodipodi="http://sodipodi.sourceforge.net/DTD/sodipodi-0.dtd"
   xmlns:inkscape="http://www.inkscape.org/namespaces/inkscape"
   version="1.1"
   id="Layer_1"
   x="0px"
   y="0px"
   viewBox="0 0 1083.6581 608.46409"
   xml:space="preserve"
   inkscape:version="0.91 r13725"
   sodipodi:docname="404.svg"
   width="1083.6581"
   height="608.46411"
   inkscape:export-filename="/Users/gkiar/code/tibs/neurostorm.github.io/images/404.png"
   inkscape:export-xdpi="76.800003"
   inkscape:export-ydpi="76.800003"><metadata
     id="metadata5303"><rdf:RDF><cc:Work
         rdf:about=""><dc:format>image/svg+xml</dc:format><dc:type
           rdf:resource="http://purl.org/dc/dcmitype/StillImage" /><dc:title></dc:title></cc:Work></rdf:RDF></metadata><defs
     id="defs5301" /><sodipodi:namedview
     pagecolor="#ffffff"
     bordercolor="#666666"
     borderopacity="1"
     objecttolerance="10"
     gridtolerance="10"
     guidetolerance="10"
     inkscape:pageopacity="0"
     inkscape:pageshadow="2"
     inkscape:window-width="1448"
     inkscape:window-height="809"
     id="namedview5299"
     showgrid="false"
     inkscape:zoom="0.59777597"
     inkscape:cx="309.49969"
     inkscape:cy="349.63969"
     inkscape:window-x="0"
     inkscape:window-y="0"
     inkscape:window-maximized="0"
     inkscape:current-layer="Layer_1"
     fit-margin-top="0"
     fit-margin-left="0"
     fit-margin-right="0"
     fit-margin-bottom="0" /><g
     id="g6065"
     transform="translate(0,-148)"><path
       inkscape:connector-curvature="0"
       id="path5219"
       d="m 148.99547,463.50712 c 14.971,0 27.151,-12.18 27.151,-27.152 0,-14.972 -12.18,-27.152 -27.151,-27.152 -14.973,0 -27.153,12.18 -27.153,27.152 0,14.972 12.18,27.152 27.153,27.152 z m -4.123,-31.279 c 1.086,-1.085 2.59,-1.703 4.13,-1.703 1.527,0 3.032,0.618 4.116,1.703 1.085,1.085 1.704,2.589 1.704,4.128 0,1.539 -0.619,3.032 -1.704,4.117 -1.085,1.096 -2.589,1.714 -4.116,1.714 -1.539,0 -3.044,-0.618 -4.13,-1.714 -1.085,-1.085 -1.702,-2.577 -1.702,-4.117 0,-1.539 0.617,-3.044 1.702,-4.128 z"
       style="fill:#e6e6e6" /><rect
       id="rect5221"
       height="17.667999"
       width="15.173"
       style="fill:#808080"
       y="511.65613"
       x="174.56447" /><path
       inkscape:connector-curvature="0"
       id="path5223"
       d="m 161.99847,511.65812 c -2.597,0 -4.712,2.114 -4.712,4.714 l 0,37.565 c 0,2.598 2.114,4.713 4.712,4.713 l 44.073,0 0,-23.495 c 0,-3.22 2.611,-5.831 5.831,-5.831 l 26.832,0 c 3.22,0 5.831,2.611 5.831,5.831 l 0,23.495 0.904,0 c 2.6,0 4.715,-2.114 4.715,-4.713 l 0,-37.565 c 0,-2.6 -2.116,-4.714 -4.715,-4.714 l -44.071,0 0,23.496 c 0,3.22 -2.611,5.831 -5.831,5.831 l -26.833,0 c -3.221,0 -5.831,-2.611 -5.831,-5.831 l 0,-23.496 -0.905,0 z"
       style="fill:#333333" /><rect
       id="rect5225"
       height="17.667999"
       width="15.173"
       style="fill:#808080"
       y="540.98712"
       x="217.73744" /><path
       inkscape:connector-curvature="0"
       id="path5227"
       d="m 258.47547,409.20312 c -10.544,0 -19.696,6.046 -24.191,14.848 l 48.382,0 c -4.496,-8.802 -13.648,-14.848 -24.191,-14.848 z"
       style="fill:#81af31" /><path
       inkscape:connector-curvature="0"
       id="path5229"
       d="m 258.47547,463.50712 c 14.971,0 27.15,-12.18 27.15,-27.152 0,-0.215 -0.012,-0.428 -0.016,-0.641 l -21.368,0 c 0.026,0.215 0.064,0.426 0.064,0.643 0,1.528 -0.617,3.032 -1.702,4.117 -1.096,1.096 -2.59,1.714 -4.13,1.714 -1.539,0 -3.032,-0.618 -4.116,-1.714 -1.085,-1.085 -1.716,-2.577 -1.716,-4.117 0,-0.217 0.041,-0.428 0.066,-0.643 l -21.369,0 c -0.005,0.213 -0.016,0.426 -0.016,0.641 0.002,14.971 12.182,27.152 27.153,27.152 z"
       style="fill:#c43333" /><g
       transform="translate(-52.265529,244.46212)"
       id="g5231"><path
         inkscape:connector-curvature="0"
         id="path5233"
         d="m 208.473,81.074 c -39.06,10.121 -58.809,32.086 -63.369,37.752 l 0,10.762 C 160.962,108.1 186.603,91.923 208.473,81.074 Z"
         style="fill:#81af31" /><path
         inkscape:connector-curvature="0"
         id="path5235"
         d="m 234.723,381.912 c -14.209,0 -26.64,-1.606 -37.28,-4.755 7.823,13.268 31.461,23.215 58.556,23.215 27.1,0 50.754,-9.948 58.575,-23.22 -10.643,3.152 -23.08,4.761 -37.295,4.761 l -42.557,0 0,-0.001 z"
         style="fill:#81af31" /></g><g
       transform="translate(-52.265529,244.46212)"
       id="g5237"><path
         inkscape:connector-curvature="0"
         id="path5239"
         d="m 317.696,496.855 c -0.669,0.248 -1.355,0.366 -2.029,0.366 -2.369,0 -4.594,-1.453 -5.467,-3.803 -1.122,-3.018 0.416,-6.375 3.435,-7.497 l 5.494,-2.04 -6.287,-15.612 -16.011,5.208 0,10.126 c 0,3.22 -2.611,5.831 -5.831,5.831 -3.22,0 -5.831,-2.611 -5.831,-5.831 l 0,-6.331 -50.556,16.446 3.376,6.62 87.767,0 -2.267,-5.634 -5.793,2.151 z"
         style="fill:#ffaa2a" /><path
         inkscape:connector-curvature="0"
         id="path5241"
         d="m 111.183,393.911 -1.1,-11.799 c -0.299,-3.206 2.058,-6.048 5.264,-6.348 3.207,-0.294 6.05,2.058 6.348,5.264 l 0.454,4.862 15.079,-11.029 -17.275,-22.96 c -7.053,6.01 -14.283,13.178 -21.11,21.631 l 8.288,23.34 4.052,-2.961 z"
         style="fill:#ffaa2a" /><path
         inkscape:connector-curvature="0"
         id="path5243"
         d="m 432.558,446.172 c 3.31,5.018 6.211,9.418 6.489,9.838 1.774,2.688 1.032,6.305 -1.657,8.078 -0.989,0.652 -2.104,0.964 -3.205,0.964 -1.894,0 -3.753,-0.921 -4.874,-2.622 -1.278,-1.937 -2.822,-4.278 -4.447,-6.743 l -5.993,7.414 0,15.01 8.884,-0.336 c 3.216,-0.133 5.924,2.388 6.047,5.607 0.121,3.218 -2.39,5.926 -5.608,6.047 l -9.324,0.352 0,10.553 28.414,0 c -3.578,-28.077 -6.28,-48.12 -8.252,-62.176 l -6.474,8.014 z"
         style="fill:#ffaa2a" /></g><path
       inkscape:connector-curvature="0"
       id="path5245"
       d="m 361.97747,673.52612 c 2.679,-1.789 6.299,-1.066 8.088,1.612 0.153,0.227 1.556,2.353 3.488,5.283 l 10.947,-13.542 c -1.167,-7.86 -1.824,-11.826 -2.067,-13.244 -20.792,-48.358 -60.667,-72.04 -77.488,-80.225 0.024,2.727 -0.458,17.847 -13.371,31.341 -4.225,4.417 -9.277,8.155 -15.127,11.225 -3.095,23.007 -33.909,40.518 -72.715,40.518 -38.804,0 -69.617,-17.511 -72.713,-40.518 -5.851,-3.069 -10.904,-6.811 -15.129,-11.226 -12.91,-13.493 -13.392,-28.612 -13.368,-31.34 -6.162999,2.998 -15.418999,8.083 -25.704999,15.699 l 5.171,6.871 6.754,-8.099 c 2.064,-2.474 5.741,-2.806 8.214,-0.744 2.474,2.062 2.806,5.739 0.745,8.213 l -8.509,10.203 8.642,11.484 c 0.939,1.247 1.338,2.818 1.108,4.361 -0.227,1.543 -1.066,2.931 -2.325,3.852 l -25.473,18.63 1.226,13.135 c 0.299,3.206 -2.058,6.048 -5.264,6.348 -0.184,0.018 -0.367,0.026 -0.549,0.026 -2.977,0 -5.516,-2.267 -5.8,-5.29 l -0.578,-6.199 -4.747,3.472 c -1.01,0.739 -2.218,1.124 -3.442,1.124 -0.576,0 -1.155,-0.085 -1.718,-0.259 -1.761,-0.542 -3.162,-1.886 -3.776,-3.621 l -8.264,-23.264 c -4.87,7.299 -9.364,15.363 -13.198,24.283 -0.646,3.78 -4.24,25.654 -12.588,91.165 l 74.899,0 0,-59.848 -10.777,-21.02 c -1.469,-2.865 -0.337,-6.38 2.528,-7.849 2.864,-1.469 6.38,-0.337 7.849,2.528 l 11.42,22.274 c 0.421,0.823 0.643,1.735 0.643,2.66 l 0,61.256 73.624999,0 -3.775,-7.403 c -0.776,-1.52 -0.847,-3.303 -0.194,-4.878 0.652,-1.577 1.963,-2.788 3.584,-3.316 l 60.657,-19.731 0,-9.471 c 0,-3.22 2.611,-5.831 5.831,-5.831 3.22,0 5.831,2.611 5.831,5.831 l 0,5.677 17.582,-5.719 c 2.917,-0.946 6.068,0.524 7.213,3.367 l 8.439,20.957 4.528,-1.682 c 3.018,-1.122 6.376,0.416 7.497,3.436 1.122,3.018 -0.418,6.375 -3.435,7.496 l -4.232,1.571 3.905,9.696 22.4,0 0,-61.256 c 0,-0.926 0.22,-1.837 0.643,-2.66 l 11.42,-22.274 c 1.468,-2.865 4.982,-3.999 7.849,-2.528 2.865,1.469 3.998,4.983 2.528,7.849 l -10.777,21.02 0,59.848 34.821,0 0,-10.112 -10.381,0.393 c -0.076,0.002 -0.149,0.003 -0.223,0.003 -3.12,0 -5.705,-2.468 -5.824,-5.611 -0.12,-3.218 2.39,-5.926 5.608,-6.048 l 10.82,-0.409 0,-17.514 c 0,-1.334 0.458,-2.628 1.297,-3.665 l 9.619,-11.9 c -2.993,-4.538 -5.31,-8.047 -5.494,-8.325 -1.792,-2.677 -1.07,-6.298 1.607,-8.086 z"
       style="fill:#754c24" /><g
       transform="translate(-52.265529,244.46212)"
       id="g5247"><path
         inkscape:connector-curvature="0"
         id="path5249"
         d="m 166.455,262.242 0,66.552 c 0,0.086 -0.001,0.171 -0.006,0.258 -0.007,0.226 -0.062,3.178 1.092,7.4 l 12.104,-13.251 c 2.172,-2.377 5.86,-2.545 8.238,-0.373 2.378,2.172 2.546,5.86 0.372,8.238 l -15.306,16.756 c 1.088,1.536 2.352,3.085 3.833,4.611 11.475,11.822 30.968,17.816 57.94,17.816 l 42.556,0 c 26.97,0 46.464,-5.994 57.939,-17.816 10.58,-10.901 10.348,-22.916 10.332,-23.422 -10e-4,-0.058 -0.003,-0.159 -0.003,-0.217 l 0,-38.545 -15.599,-15.295 c -2.301,-2.254 -2.337,-5.947 -0.082,-8.246 2.254,-2.299 5.947,-2.336 8.245,-0.082 l 7.436,7.29 0,-11.674 c 0,-3.22 2.611,-5.831 5.831,-5.831 4.912,0 8.929,-1.684 12.279,-5.148 9.912,-10.248 11.391,-33.335 11.123,-41.368 -0.002,-0.064 -0.003,-0.129 -0.003,-0.194 0,-26.02 -4.294,-32.583 -5.037,-33.523 -1.738,-1.036 -2.843,-2.925 -2.843,-5.008 l 0,-31.277 c -9.547,-4.72 -40.311,-18.685 -71.733,-19.583 -2.69,-0.077 -4.979,-1.986 -5.537,-4.619 -0.559,-2.633 0.758,-5.306 3.186,-6.469 1.052,-0.505 25.29,-11.697 73.954,-3.333 -2.068,-34.771 -31.002,-62.43 -66.284,-62.43 l -88.966,0 c -33.699,0 -61.597,25.237 -65.836,57.8 15.849,-14.614 49.239,-37.007 105.065,-37.007 2.886,0 5.337,2.112 5.765,4.966 0.429,2.854 -1.296,5.592 -4.055,6.44 -0.891,0.274 -88.795,27.8 -107.352,77.821 l 0,17.69 c 0,2.083 -1.107,3.972 -2.843,5.008 -0.744,0.94 -5.037,7.504 -5.037,33.523 0,0.065 -0.001,0.129 -0.003,0.195 -0.254,8.046 1.249,31.176 11.134,41.378 3.349,3.457 7.362,5.137 12.271,5.137 3.218,10e-4 5.83,2.612 5.83,5.832 z m 103.252,83.752 -27.416,0 c -3.22,0 -5.831,-2.611 -5.831,-5.831 0,-3.22 2.611,-5.831 5.831,-5.831 l 27.416,0 c 3.22,0 5.831,2.611 5.831,5.831 0,3.22 -2.612,5.831 -5.831,5.831 z m 41.034,-192.915 c 21.401,0 38.812,17.412 38.812,38.814 0,21.403 -17.412,38.814 -38.812,38.814 -21.403,0 -38.813,-17.412 -38.813,-38.814 0,-21.402 17.411,-38.814 38.813,-38.814 z m -47.389,66.46 c 2.947,-1.3 6.39,0.033 7.69,2.977 l 7.997,18.103 c 1.302,2.946 -0.031,6.39 -2.977,7.69 -0.766,0.338 -1.566,0.499 -2.353,0.499 -2.239,0 -4.375,-1.297 -5.337,-3.477 l -7.997,-18.103 c -1.301,-2.945 0.033,-6.388 2.977,-7.689 z m 34.382,35.995 c 9.03,0 16.377,7.346 16.377,16.376 l 0,37.565 c 0,9.029 -7.347,16.375 -16.377,16.375 l -83.47,0 c -9.028,0 -16.374,-7.346 -16.374,-16.375 l 0,-37.565 c 0,-9.03 7.346,-16.376 16.374,-16.376 l 83.47,0 z M 248.65,219.54 c 2.946,1.301 4.279,4.744 2.977,7.69 l -8,18.103 c -0.962,2.18 -3.099,3.475 -5.337,3.475 -0.787,0 -1.586,-0.161 -2.355,-0.499 -2.945,-1.301 -4.278,-4.744 -2.976,-7.69 l 8,-18.103 c 1.302,-2.946 4.745,-4.279 7.691,-2.976 z m -47.389,-66.461 c 21.401,0 38.813,17.412 38.813,38.814 0,21.403 -17.412,38.814 -38.813,38.814 -21.404,0 -38.816,-17.412 -38.816,-38.814 0.001,-21.402 17.414,-38.814 38.816,-38.814 z"
         style="fill:#81af31" /><path
         inkscape:connector-curvature="0"
         id="path5251"
         d="m 366.896,126.951 0,-9.202 c -13.377,-2.42 -24.811,-3.272 -34.275,-3.278 14.438,3.909 26.61,8.948 34.275,12.48 z"
         style="fill:#81af31" /></g><path
       inkscape:connector-curvature="0"
       id="path5253"
       d="m 217.44147,578.79312 -27.416,0 c -3.22,0 -5.831,2.611 -5.831,5.831 0,3.22 2.611,5.831 5.831,5.831 l 27.416,0 c 3.22,0 5.831,-2.611 5.831,-5.831 0,-3.22 -2.612,-5.831 -5.831,-5.831 z" /><path
       inkscape:connector-curvature="0"
       id="path5255"
       d="m 148.99547,475.16912 c 21.401,0 38.813,-17.412 38.813,-38.814 0,-21.402 -17.412,-38.814 -38.813,-38.814 -21.404,0 -38.816,17.412 -38.816,38.814 0.001,21.403 17.414,38.814 38.816,38.814 z m 0,-65.966 c 14.971,0 27.151,12.18 27.151,27.152 0,14.972 -12.18,27.152 -27.151,27.152 -14.973,0 -27.153,-12.18 -27.153,-27.152 0,-14.972 12.18,-27.152 27.153,-27.152 z" /><path
       inkscape:connector-curvature="0"
       id="path5257"
       d="m 149.00147,442.18712 c 1.527,0 3.032,-0.618 4.116,-1.714 1.085,-1.085 1.704,-2.577 1.704,-4.117 0,-1.54 -0.619,-3.044 -1.704,-4.128 -1.085,-1.085 -2.589,-1.703 -4.116,-1.703 -1.539,0 -3.044,0.618 -4.13,1.703 -1.085,1.085 -1.702,2.589 -1.702,4.128 0,1.539 0.617,3.032 1.702,4.117 1.086,1.096 2.591,1.714 4.13,1.714 z" /><path
       inkscape:connector-curvature="0"
       id="path5259"
       d="m 258.47547,475.16912 c 21.401,0 38.812,-17.412 38.812,-38.814 0,-21.402 -17.412,-38.814 -38.812,-38.814 -21.403,0 -38.813,17.412 -38.813,38.814 0,21.403 17.411,38.814 38.813,38.814 z m 0,-65.966 c 10.543,0 19.695,6.046 24.191,14.848 l -48.382,0 c 4.496,-8.802 13.647,-14.848 24.191,-14.848 z m -27.135,26.511 21.369,0 c -0.024,0.215 -0.066,0.426 -0.066,0.643 0,1.539 0.631,3.032 1.716,4.117 1.085,1.096 2.576,1.714 4.116,1.714 1.539,0 3.033,-0.618 4.13,-1.714 1.085,-1.085 1.702,-2.589 1.702,-4.117 0,-0.217 -0.038,-0.428 -0.064,-0.643 l 21.368,0 c 0.005,0.213 0.016,0.426 0.016,0.641 0,14.971 -12.179,27.152 -27.15,27.152 -14.971,0 -27.151,-12.18 -27.151,-27.152 -0.002,-0.216 0.01,-0.428 0.014,-0.641 z" /><path
       inkscape:connector-curvature="0"
       id="path5261"
       d="m 183.67047,492.77112 c 0.767,0.338 1.567,0.499 2.355,0.499 2.238,0 4.375,-1.297 5.337,-3.475 l 8,-18.103 c 1.301,-2.946 -0.03,-6.389 -2.977,-7.69 -2.946,-1.303 -6.389,0.031 -7.69,2.976 l -8,18.103 c -1.303,2.946 0.029,6.389 2.975,7.69 z" /><path
       inkscape:connector-curvature="0"
       id="path5263"
       d="m 216.10747,489.79512 c 0.962,2.18 3.098,3.477 5.337,3.477 0.787,0 1.586,-0.161 2.353,-0.499 2.945,-1.301 4.279,-4.744 2.977,-7.69 l -7.997,-18.103 c -1.3,-2.945 -4.742,-4.278 -7.69,-2.977 -2.945,1.301 -4.279,4.744 -2.977,7.69 l 7.997,18.102 z" /><path
       inkscape:connector-curvature="0"
       id="path5265"
       d="m 145.62447,516.37212 0,37.565 c 0,9.029 7.346,16.375 16.374,16.375 l 83.47,0 c 9.03,0 16.377,-7.346 16.377,-16.375 l 0,-37.565 c 0,-9.03 -7.347,-16.376 -16.377,-16.376 l -83.47,0 c -9.029,0 -16.374,7.346 -16.374,16.376 z m 87.278,42.278 -15.17,0 0,-17.664 15.17,0 0,17.664 z m -58.337,-46.992 15.171,0 0,17.665 -15.171,0 0,-17.665 z m -5.831,29.327 26.834,0 c 3.22,0 5.831,-2.611 5.831,-5.831 l 0,-23.496 44.069,0 c 2.6,0 4.715,2.114 4.715,4.714 l 0,37.565 c 0,2.598 -2.116,4.713 -4.715,4.713 l -0.904,0 0,-23.495 c 0,-3.22 -2.611,-5.831 -5.831,-5.831 l -26.833,0 c -3.22,0 -5.831,2.611 -5.831,5.831 l 0,23.495 -44.073,0 c -2.597,0 -4.712,-2.114 -4.712,-4.713 l 0,-37.565 c 0,-2.6 2.114,-4.714 4.712,-4.714 l 0.905,0 0,23.496 c 0.002,3.22 2.612,5.831 5.833,5.831 z" /><path
       inkscape:connector-curvature="0"
       id="path5267"
       d="m 393.79847,650.91912 c -0.077,-0.423 -0.202,-0.836 -0.37,-1.233 -24.828,-58.454 -74.208,-83.076 -88.486,-89.154 l 0,-48.537 c 5.661,-1.089 10.631,-3.821 14.831,-8.162 15.069,-15.577 14.469,-47.317 14.401,-49.759 -0.009,-25.103 -3.725,-36.394 -7.881,-41.165 l 0,-53.827 c 6.155,-2.355 10.542,-8.318 10.542,-15.293 l 0,-18.772 c 0,-3.22 -2.611,-5.831 -5.831,-5.831 -3.22,0 -5.831,2.611 -5.831,5.831 l 0,16.218 c -2.903,-17.105 -11.384,-32.328 -23.506,-43.735 3.415,-3.001 5.58,-7.386 5.58,-12.279 l 0,-18.774 c 0,-3.22 -2.611,-5.831 -5.831,-5.831 -3.22,0 -5.831,2.611 -5.831,5.831 l 0,18.774 c 0,2.188 -1.504,4.015 -3.528,4.544 -10.846,-7.387 -23.642,-12.096 -37.441,-13.222 l 0,-26.25 c 0,-3.22 -2.61,-5.831 -5.831,-5.831 -3.221,0 -5.831,2.611 -5.831,5.831 l 0,25.966 -78.431,0 0,-25.966 c 0,-3.22 -2.61,-5.831 -5.831,-5.831 -3.221,0 -5.831,2.611 -5.831,5.831 l 0,26.249 c -13.4,1.092 -25.851,5.572 -36.491,12.595 -2.489,-0.125 -4.481,-2.17 -4.481,-4.691 l 0,-18.773 c 0,-3.22 -2.611,-5.831 -5.831,-5.831 -3.22,0 -5.831,2.611 -5.831,5.831 l 0,18.774 c 0,5.095 2.346,9.642 6.007,12.644 -12.354999,11.452 -20.998999,26.838 -23.935999,44.15 l 0,-16.997 c 0,-3.22 -2.611,-5.831 -5.831,-5.831 -3.22,0 -5.831,2.611 -5.831,5.831 l 0,18.774 c 0,6.973 4.389,12.929 10.543,15.285 l 0,54.607 c -4.155,4.772 -7.872,16.062 -7.881,41.165 -0.071,2.439 -0.672,34.18 14.398,49.759 4.201,4.342 9.172,7.073 14.833999,8.162 l 0,48.537 c -14.277999,6.078 -63.660999,30.701 -88.488999,89.154 -0.168,0.395 -0.292,0.809 -0.369,1.233 -0.146,0.798 -3.6829997,20.452 -13.62599975,98.98 -0.211,1.661 0.303,3.332 1.41000005,4.588 1.107,1.256 2.7,1.976 4.375,1.976 l 395.8109987,0 c 1.674,0 3.268,-0.72 4.375,-1.976 1.107,-1.256 1.621,-2.927 1.41,-4.588 -9.946,-78.528 -13.485,-98.183 -13.629,-98.981 z M 92.838471,363.28812 c 4.56,-5.666 24.308999,-27.631 63.368999,-37.752 -21.87,10.849 -47.511,27.026 -63.368999,48.514 0,0 0,-10.762 0,-10.762 z m 3.249,132.448 c -9.885,-10.202 -11.388,-33.332 -11.134,-41.378 0.002,-0.065 0.003,-0.129 0.003,-0.195 0,-26.02 4.294,-32.583 5.037,-33.523 1.737,-1.036 2.843,-2.925 2.843,-5.008 l 0,-17.69 c 18.556999,-50.021 106.460999,-77.548 107.351999,-77.821 2.758,-0.848 4.484,-3.586 4.055,-6.44 -0.428,-2.854 -2.879,-4.966 -5.765,-4.966 -55.826,0 -89.216,22.393 -105.064999,37.007 4.239,-32.563 32.136999,-57.8 65.835999,-57.8 l 88.966,0 c 35.282,0 64.216,27.658 66.284,62.43 -48.665,-8.364 -72.902,2.828 -73.954,3.333 -2.428,1.163 -3.745,3.836 -3.186,6.469 0.559,2.633 2.847,4.542 5.537,4.619 31.422,0.898 62.187,14.865 71.733,19.583 l 0,31.277 c 0,2.083 1.106,3.972 2.843,5.008 0.744,0.94 5.037,7.503 5.037,33.523 0,0.064 10e-4,0.129 0.003,0.194 0.266,8.032 -1.212,31.121 -11.123,41.368 -3.351,3.464 -7.367,5.148 -12.279,5.148 -3.22,0 -5.831,2.611 -5.831,5.831 l 0,11.674 -7.436,-7.29 c -2.3,-2.255 -5.992,-2.217 -8.245,0.082 -2.255,2.3 -2.218,5.992 0.082,8.246 l 15.599,15.295 0,38.545 c 0,0.058 0.002,0.159 0.004,0.217 0.016,0.506 0.248,12.522 -10.332,23.422 -11.476,11.822 -30.969,17.816 -57.939,17.816 l -42.556,0 c -26.972,0 -46.466,-5.994 -57.94,-17.816 -1.481,-1.527 -2.745,-3.075 -3.833,-4.611 l 15.306,-16.756 c 2.173,-2.378 2.006,-6.067 -0.372,-8.238 -2.377,-2.172 -6.066,-2.004 -8.238,0.373 l -12.104,13.251 c -1.152,-4.222 -1.097,-7.173 -1.092,-7.4 0.005,-0.086 0.006,-0.171 0.006,-0.258 l 0,-66.552 c 0,-3.22 -2.611,-5.831 -5.831,-5.831 -4.907,-0.001 -8.920999,-1.681 -12.270999,-5.138 z m 218.542999,-133.525 0,9.202 c -7.663,-3.531 -19.836,-8.571 -34.275,-12.48 9.462,0.007 20.898,0.859 34.275,3.278 z m -52.323,259.403 c -7.82,13.272 -31.474,23.22 -58.575,23.22 -27.095,0 -50.733,-9.947 -58.556,-23.215 10.639,3.149 23.07,4.755 37.28,4.755 l 42.556,0 c 14.215,0 26.652,-1.608 37.295,-4.76 z m -194.620999,-25.247 17.275,22.96 -15.079,11.029 -0.454,-4.862 c -0.299,-3.207 -3.141,-5.558 -6.348,-5.264 -3.206,0.3 -5.563,3.141 -5.264,6.348 l 1.1,11.799 -4.053,2.963 -8.288,-23.34 c 6.827,-8.454 14.058,-15.623 21.111,-21.633 z m 118.034999,148.433 -3.376,-6.619 50.556,-16.446 0,6.331 c 0,3.22 2.611,5.831 5.831,5.831 3.22,0 5.831,-2.611 5.831,-5.831 l 0,-10.126 16.011,-5.208 6.287,15.612 -5.494,2.04 c -3.018,1.121 -4.556,4.477 -3.435,7.496 0.872,2.35 3.098,3.803 5.467,3.803 0.674,0 1.36,-0.118 2.029,-0.366 l 5.79,-2.151 2.267,5.634 -87.764,0 0,0 z m 170.52,-42.962 c -0.84,1.038 -1.297,2.331 -1.297,3.665 l 0,17.514 -10.82,0.409 c -3.219,0.121 -5.729,2.829 -5.608,6.048 0.12,3.143 2.704,5.611 5.824,5.611 0.073,0 0.148,-10e-4 0.223,-0.003 l 10.381,-0.393 0,10.112 -34.821,0 0,-59.848 10.777,-21.02 c 1.469,-2.865 0.337,-6.38 -2.528,-7.849 -2.867,-1.471 -6.382,-0.337 -7.849,2.528 l -11.42,22.274 c -0.421,0.823 -0.643,1.735 -0.643,2.66 l 0,61.256 -22.4,0 -3.905,-9.696 4.232,-1.571 c 3.018,-1.121 4.556,-4.477 3.435,-7.497 -1.121,-3.019 -4.478,-4.558 -7.496,-3.436 l -4.528,1.682 -8.439,-20.957 c -1.145,-2.844 -4.296,-4.313 -7.213,-3.367 l -17.582,5.719 0,-5.677 c 0,-3.22 -2.611,-5.831 -5.831,-5.831 -3.22,0 -5.831,2.611 -5.831,5.831 l 0,9.471 -60.657,19.731 c -1.622,0.528 -2.932,1.74 -3.584,3.316 -0.653,1.577 -0.582,3.359 0.194,4.878 l 3.775,7.403 -73.625999,0 0,-61.256 c 0,-0.926 -0.22,-1.837 -0.643,-2.66 l -11.42,-22.274 c -1.469,-2.865 -4.984,-3.998 -7.849,-2.528 -2.865,1.469 -3.998,4.983 -2.528,7.849 l 10.777,21.02 0,59.848 -74.895,0 c 8.348,-65.512 11.942,-87.386 12.588,-91.165 3.835,-8.92 8.329,-16.984 13.198,-24.283 l 8.264,23.264 c 0.615,1.735 2.016,3.079 3.776,3.621 0.562,0.173 1.142,0.259 1.718,0.259 1.223,0 2.432,-0.385 3.442,-1.124 l 4.747,-3.472 0.578,6.198 c 0.282,3.023 2.822,5.29 5.8,5.29 0.181,0 0.365,-0.008 0.549,-0.026 3.206,-0.3 5.562,-3.141 5.264,-6.348 l -1.226,-13.135 25.473,-18.63 c 1.26,-0.92 2.098,-2.308 2.325,-3.852 0.23,-1.543 -0.17,-3.114 -1.108,-4.361 l -8.642,-11.484 8.509,-10.203 c 2.062,-2.474 1.728,-6.151 -0.745,-8.213 -2.472,-2.062 -6.15,-1.73 -8.214,0.744 l -6.754,8.099 -5.171,-6.871 c 10.286,-7.615 19.541,-12.7 25.704999,-15.699 -0.023,2.728 0.458,17.847 13.368,31.34 4.225,4.416 9.278,8.157 15.129,11.226 3.095,23.007 33.908,40.518 72.713,40.518 38.805,0 69.619,-17.511 72.715,-40.518 5.85,-3.069 10.902,-6.81 15.127,-11.225 12.912,-13.494 13.394,-28.615 13.371,-31.341 16.822,8.183 56.696,31.867 77.488,80.225 0.243,1.418 0.899,5.383 2.067,13.244 l -10.947,13.542 c -1.932,-2.928 -3.335,-5.056 -3.488,-5.283 -1.788,-2.678 -5.409,-3.401 -8.088,-1.612 -2.678,1.788 -3.4,5.409 -1.612,8.088 0.184,0.278 2.502,3.787 5.494,8.325 l -9.618,11.9 z m 10.365,42.962 0,-10.553 9.324,-0.352 c 3.219,-0.121 5.728,-2.829 5.608,-6.047 -0.122,-3.219 -2.832,-5.74 -6.047,-5.607 l -8.884,0.336 0,-15.01 5.993,-7.414 c 1.626,2.464 3.17,4.806 4.447,6.743 1.121,1.7 2.98,2.622 4.874,2.622 1.101,0 2.216,-0.313 3.205,-0.964 2.689,-1.773 3.43,-5.389 1.657,-8.078 -0.278,-0.421 -3.179,-4.821 -6.489,-9.838 l 6.476,-8.011 c 1.972,14.057 4.674,34.099 8.252,62.176 l -28.416,0 0,-0.003 z" /></g><g
     id="g5269"
     transform="translate(-52.265529,244.46212)" /><g
     id="g5271"
     transform="translate(-52.265529,244.46212)" /><g
     id="g5273"
     transform="translate(-52.265529,244.46212)" /><g
     id="g5275"
     transform="translate(-52.265529,244.46212)" /><g
     id="g5277"
     transform="translate(-52.265529,244.46212)" /><g
     id="g5279"
     transform="translate(-52.265529,244.46212)" /><g
     id="g5281"
     transform="translate(-52.265529,244.46212)" /><g
     id="g5283"
     transform="translate(-52.265529,244.46212)" /><g
     id="g5285"
     transform="translate(-52.265529,244.46212)" /><g
     id="g5287"
     transform="translate(-52.265529,244.46212)" /><g
     id="g5289"
     transform="translate(-52.265529,244.46212)" /><g
     id="g5291"
     transform="translate(-52.265529,244.46212)" /><g
     id="g5293"
     transform="translate(-52.265529,244.46212)" /><g
     id="g5295"
     transform="translate(-52.265529,244.46212)" /><g
     id="g5297"
     transform="translate(-52.265529,244.46212)" /><path
     id="path5940"
     d="m 534.82664,159.8041 c -17.77227,18.92876 -25.03074,-34.55755 -2.7521,-59.865831 8.93696,-9.98474 19.35313,-17.56574 30.3234,-22.49647 3.14334,-5.17727 6.90364,-10.23128 11.15578,-15.03874 18.42862,-20.64745 42.77412,-31.7416 65.14794,-31.86487 15.65508,-12.01866 36.79498,-21.1405202 60.83231,-24.9002002 18.92169,-2.95844 37.16541,-2.21883 53.12866,1.47922 13.86769,-6.04015 30.20074,-8.50552 47.33504,-6.34831993 17.81166,2.28045993 33.59062,9.18348993 45.67092,19.10659013 19.1066,-8.62878 43.69863,-9.12186 67.11958,0.55471 20.1544,8.32061 35.6246,22.49647 44.3766,38.82953 15.65513,3.45151 31.49513,11.77212 44.99303,24.7153 19.1682,18.366981 29.2762,41.911241 29.2146,63.359931 23.2977,12.94317 38.0899,35.19311 37.0421,58.92227 6.2251,9.49166 10.9093,20.64744 13.3746,32.91264 4.2528,21.26379 1.0478,41.84899 -7.581,58.12103 0.6164,35.93272 -19.538,66.93471 -49.862,72.97486 -1.9723,0.3698 -3.9446,0.67797 -5.9169,0.86226 1.0478,7.45835 0.9245,15.03874 -0.6163,22.61974 -8.6905,43.8219 -58.98393,70.75603 -112.35916,60.15495 -2.40312,-0.49307 -4.80747,-1.04716 -7.14956,-1.6635 l 0,0 c -7.95081,12.75765 -24.46877,7.27283 -24.46877,7.27283 l 0,47.21178 c 0,5.054 -1.91066,9.86146 -5.42381,13.55951 l -26.13289,27.55048 c -6.10116,6.47159 -16.94939,2.09556 -16.94939,-6.77976 l 0,-53.37519 c -1.60249,-48.13691 -19.2915,-71.92708 -34.39187,-80.98731 -20.33928,-12.2652 -20.03111,-37.78174 -19.90784,-47.0885 -16.02488,8.44388 -41.35715,13.25134 -62.55868,10.84823 -95.65562,-11.03252 -100.64799,-75.3786 -103.79195,-85.91804 -23.18808,-7.36761 12.68331,-8.5553 1.58916,-31.29831 12.6539,-15.03332 7.87253,-37.28852 -7.1851,-37.06808 8.49831,-12.5822 -6.18069,-35.788 -20.4507,-37.3692 -6.53446,-14.49649 -25.70097,-26.34531 -43.8057,-18.99354 z"
     inkscape:connector-curvature="0"
     style="fill:#d66b6b;fill-opacity:1"
     sodipodi:nodetypes="cccccccccccccccccccccccsccsccccccccc" /><g
     style="fill:#d66b6b;fill-opacity:1"
     id="g5942"
     transform="matrix(-0.61634172,0,0,0.61634172,1119.6585,-11.704021)" /><g
     style="fill:#d66b6b;fill-opacity:1"
     id="g5944"
     transform="matrix(-0.61634172,0,0,0.61634172,1119.6585,-11.704021)" /><g
     style="fill:#d66b6b;fill-opacity:1"
     id="g5946"
     transform="matrix(-0.61634172,0,0,0.61634172,1119.6585,-11.704021)" /><g
     style="fill:#d66b6b;fill-opacity:1"
     id="g5948"
     transform="matrix(-0.61634172,0,0,0.61634172,1119.6585,-11.704021)" /><g
     style="fill:#d66b6b;fill-opacity:1"
     id="g5950"
     transform="matrix(-0.61634172,0,0,0.61634172,1119.6585,-11.704021)" /><g
     style="fill:#d66b6b;fill-opacity:1"
     id="g5952"
     transform="matrix(-0.61634172,0,0,0.61634172,1119.6585,-11.704021)" /><g
     style="fill:#d66b6b;fill-opacity:1"
     id="g5954"
     transform="matrix(-0.61634172,0,0,0.61634172,1119.6585,-11.704021)" /><g
     style="fill:#d66b6b;fill-opacity:1"
     id="g5956"
     transform="matrix(-0.61634172,0,0,0.61634172,1119.6585,-11.704021)" /><g
     style="fill:#d66b6b;fill-opacity:1"
     id="g5958"
     transform="matrix(-0.61634172,0,0,0.61634172,1119.6585,-11.704021)" /><g
     style="fill:#d66b6b;fill-opacity:1"
     id="g5960"
     transform="matrix(-0.61634172,0,0,0.61634172,1119.6585,-11.704021)" /><g
     style="fill:#d66b6b;fill-opacity:1"
     id="g5962"
     transform="matrix(-0.61634172,0,0,0.61634172,1119.6585,-11.704021)" /><g
     style="fill:#d66b6b;fill-opacity:1"
     id="g5964"
     transform="matrix(-0.61634172,0,0,0.61634172,1119.6585,-11.704021)" /><g
     style="fill:#d66b6b;fill-opacity:1"
     id="g5966"
     transform="matrix(-0.61634172,0,0,0.61634172,1119.6585,-11.704021)" /><g
     style="fill:#d66b6b;fill-opacity:1"
     id="g5968"
     transform="matrix(-0.61634172,0,0,0.61634172,1119.6585,-11.704021)" /><g
     style="fill:#d66b6b;fill-opacity:1"
     id="g5970"
     transform="matrix(-0.61634172,0,0,0.61634172,1119.6585,-11.704021)" /><text
     xml:space="preserve"
     style="font-style:normal;font-weight:normal;font-size:11.25px;line-height:125%;font-family:sans-serif;letter-spacing:0px;word-spacing:0px;fill:#318dde;fill-opacity:1;stroke:none;stroke-width:1px;stroke-linecap:butt;stroke-linejoin:miter;stroke-opacity:1"
     x="439.05716"
     y="507.18536"
     id="text6061"
     sodipodi:linespacing="125%"><tspan
       sodipodi:role="line"
       id="tspan6063"
       x="439.05716"
       y="507.18536"
       style="font-style:normal;font-variant:normal;font-weight:bold;font-stretch:normal;font-size:325px;font-family:QuadonW00-Bold;-inkscape-font-specification:'QuadonW00-Bold Bold';fill:#318dde;fill-opacity:1">404</tspan></text>
</svg>