<?xml version="1.0" encoding="UTF-8" standalone="no"?>
<!-- Created with Inkscape (http://www.inkscape.org/) -->

<svg
   xmlns:dc="http://purl.org/dc/elements/1.1/"
   xmlns:cc="http://creativecommons.org/ns#"
   xmlns:rdf="http://www.w3.org/1999/02/22-rdf-syntax-ns#"
   xmlns:svg="http://www.w3.org/2000/svg"
   xmlns="http://www.w3.org/2000/svg"
   xmlns:sodipodi="http://sodipodi.sourceforge.net/DTD/sodipodi-0.dtd"
   xmlns:inkscape="http://www.inkscape.org/namespaces/inkscape"
   width="169.33333mm"
   height="169.33333mm"
   viewBox="0 0 599.99998 599.99998"
   id="svg2"
   version="1.1"
   inkscape:version="0.91 r13725"
   sodipodi:docname="neurostorm.svg"
   inkscape:export-filename="/Users/gkiar/code/tibs/neurostorm.github.io/images/neurostorm_dark.png"
   inkscape:export-xdpi="76.800003"
   inkscape:export-ydpi="76.800003">
  <defs
     id="defs4" />
  <sodipodi:namedview
     id="base"
     pagecolor="#ffffff"
     bordercolor="#666666"
     borderopacity="1.0"
     inkscape:pageopacity="0.0"
     inkscape:pageshadow="2"
     inkscape:zoom="0.6303194"
     inkscape:cx="257.76008"
     inkscape:cy="273.466"
     inkscape:document-units="px"
     inkscape:current-layer="g5000"
     showgrid="false"
     fit-margin-top="0"
     fit-margin-left="0"
     fit-margin-right="0"
     fit-margin-bottom="0"
     inkscape:window-width="1342"
     inkscape:window-height="797"
     inkscape:window-x="0"
     inkscape:window-y="1"
     inkscape:window-maximized="0" />
  <metadata
     id="metadata7">
    <rdf:RDF>
      <cc:Work
         rdf:about="">
        <dc:format>image/svg+xml</dc:format>
        <dc:type
           rdf:resource="http://purl.org/dc/dcmitype/StillImage" />
        <dc:title></dc:title>
      </cc:Work>
    </rdf:RDF>
  </metadata>
  <g
     inkscape:label="Layer 1"
     inkscape:groupmode="layer"
     id="layer1"
     transform="translate(20.863992,37.116408)">
    <g
       id="g5000"
       transform="matrix(0.78871248,0,0,0.78871248,27.594604,61.653075)">
      <g
         style="fill:#28282e;fill-opacity:1;stroke:none;stroke-opacity:1"
         transform="matrix(-0.58822832,0,0,0.58822832,594.1458,-12.398355)"
         id="g4509">
        <g
           style="fill:#28282e;fill-opacity:1;stroke:none;stroke-opacity:1"
           id="g4469">
          <path
             style="fill:#28282e;fill-opacity:1;stroke:none;stroke-opacity:1"
             inkscape:connector-curvature="0"
             d="m 926.932,305.137 c 12.301,-38.3 1.4,-86.6 -32,-124 -14.5,-16.2 -31.4,-28.5 -49.199,-36.5 -5.1,-8.4 -11.201,-16.6 -18.1,-24.4 -29.9,-33.5 -69.4,-51.5 -105.701,-51.7 -25.4,-19.5 -59.699,-34.3 -98.699,-40.4 -30.7,-4.8 -60.3,-3.6 -86.2,2.4 -22.5,-9.8 -49,-13.8 -76.8,-10.3 -28.899,3.7 -54.5,14.9 -74.1,31 -31,-14 -70.9,-14.8 -108.9,0.9 -32.7,13.5 -57.8,36.5 -72,63 -25.4,5.6 -51.1,19.1 -73,40.1 -31.1,29.8 -47.5,68 -47.4,102.8 -37.8,21 -61.8,57.1 -60.1,95.6 -10.1,15.4 -17.7,33.5 -21.7,53.4 -6.9,34.5 -1.7,67.899 12.3,94.3 -1,58.3 31.7,108.6 80.9,118.4 3.2,0.6 6.4,1.1 9.6,1.399 -1.7,12.101 -1.5,24.4 1,36.7 14.1,71.1 95.7,114.8 182.3,97.6 3.899,-0.8 7.8,-1.699 11.6,-2.699 l 0,0 c 12.9,20.699 39.7,11.8 39.7,11.8 l 0,76.6 c 0,8.2 3.1,16 8.8,22 l 42.4,44.7 c 9.899,10.5 27.5,3.4 27.5,-11 l 0,-86.6 c 2.6,-78.101 31.3,-116.7 55.8,-131.4 33,-19.9 32.5,-61.3 32.3,-76.4 26,13.7 67.101,21.5 101.5,17.601 155.199,-17.9 163.299,-122.3 168.4,-139.4 45.299,3.4 86.898,-15.8 104.898,-52.7 2.5,-5.199 4.5,-10.6 5.9,-16 15,-8.899 27.301,-21.6 35.1,-37.6 10.602,-21.601 11.301,-46.001 3.901,-69.201 z"
             id="path4471" />
        </g>
        <g
           style="fill:#28282e;fill-opacity:1;stroke:none;stroke-opacity:1"
           id="g4473" />
        <g
           style="fill:#28282e;fill-opacity:1;stroke:none;stroke-opacity:1"
           id="g4475" />
        <g
           style="fill:#28282e;fill-opacity:1;stroke:none;stroke-opacity:1"
           id="g4477" />
        <g
           style="fill:#28282e;fill-opacity:1;stroke:none;stroke-opacity:1"
           id="g4479" />
        <g
           style="fill:#28282e;fill-opacity:1;stroke:none;stroke-opacity:1"
           id="g4481" />
        <g
           style="fill:#28282e;fill-opacity:1;stroke:none;stroke-opacity:1"
           id="g4483" />
        <g
           style="fill:#28282e;fill-opacity:1;stroke:none;stroke-opacity:1"
           id="g4485" />
        <g
           style="fill:#28282e;fill-opacity:1;stroke:none;stroke-opacity:1"
           id="g4487" />
        <g
           style="fill:#28282e;fill-opacity:1;stroke:none;stroke-opacity:1"
           id="g4489" />
        <g
           style="fill:#28282e;fill-opacity:1;stroke:none;stroke-opacity:1"
           id="g4491" />
        <g
           style="fill:#28282e;fill-opacity:1;stroke:none;stroke-opacity:1"
           id="g4493" />
        <g
           style="fill:#28282e;fill-opacity:1;stroke:none;stroke-opacity:1"
           id="g4495" />
        <g
           style="fill:#28282e;fill-opacity:1;stroke:none;stroke-opacity:1"
           id="g4497" />
        <g
           style="fill:#28282e;fill-opacity:1;stroke:none;stroke-opacity:1"
           id="g4499" />
        <g
           style="fill:#28282e;fill-opacity:1;stroke:none;stroke-opacity:1"
           id="g4501" />
      </g>
      <g
         style="fill:#a6bcd7;fill-opacity:1"
         transform="matrix(0.85819301,0,0,0.85819301,149.59324,-6.4847975)"
         id="g4978">
        <g
           style="fill:#a6bcd7;fill-opacity:1"
           id="g4936">
          <g
             style="fill:#a6bcd7;fill-opacity:1"
             id="g4938">
            <path
               style="fill:#a6bcd7;fill-opacity:1"
               inkscape:connector-curvature="0"
               d="m 400.268,175.599 c -1.399,-3.004 -4.412,-4.932 -7.731,-4.932 l -101.12,0 99.797,-157.568 c 1.664,-2.628 1.766,-5.956 0.265,-8.678 C 389.977,1.69 387.109,0 384.003,0 L 247.47,0 c -3.234,0 -6.187,1.826 -7.637,4.719 l -128,256 c -1.323,2.637 -1.178,5.777 0.375,8.294 1.562,2.517 4.301,4.053 7.262,4.053 l 87.748,0 -95.616,227.089 c -1.63,3.883 -0.179,8.388 3.413,10.59 1.382,0.845 2.918,1.254 4.446,1.254 2.449,0 4.864,-1.05 6.537,-3.029 L 399.065,184.703 c 2.141,-2.542 2.602,-6.092 1.203,-9.104 z"
               id="path4940" />
          </g>
        </g>
        <g
           style="fill:#a6bcd7;fill-opacity:1"
           id="g4942" />
        <g
           style="fill:#a6bcd7;fill-opacity:1"
           id="g4944" />
        <g
           style="fill:#a6bcd7;fill-opacity:1"
           id="g4946" />
        <g
           style="fill:#a6bcd7;fill-opacity:1"
           id="g4948" />
        <g
           style="fill:#a6bcd7;fill-opacity:1"
           id="g4950" />
        <g
           style="fill:#a6bcd7;fill-opacity:1"
           id="g4952" />
        <g
           style="fill:#a6bcd7;fill-opacity:1"
           id="g4954" />
        <g
           style="fill:#a6bcd7;fill-opacity:1"
           id="g4956" />
        <g
           style="fill:#a6bcd7;fill-opacity:1"
           id="g4958" />
        <g
           style="fill:#a6bcd7;fill-opacity:1"
           id="g4960" />
        <g
           style="fill:#a6bcd7;fill-opacity:1"
           id="g4962" />
        <g
           style="fill:#a6bcd7;fill-opacity:1"
           id="g4964" />
        <g
           style="fill:#a6bcd7;fill-opacity:1"
           id="g4966" />
        <g
           style="fill:#a6bcd7;fill-opacity:1"
           id="g4968" />
        <g
           style="fill:#a6bcd7;fill-opacity:1"
           id="g4970" />
      </g>
    </g>
  </g>
</svg>
